<?xml version="1.0" encoding="utf-8"?>
<!-- Generator: Adobe Illustrator 15.0.2, SVG Export Plug-In . SVG Version: 6.00 Build 0)  -->
<!DOCTYPE svg PUBLIC "-//W3C//DTD SVG 1.1//EN" "http://www.w3.org/Graphics/SVG/1.1/DTD/svg11.dtd">
<svg version="1.1" id="Layer_1" xmlns="http://www.w3.org/2000/svg" xmlns:xlink="http://www.w3.org/1999/xlink" x="0px" y="0px"
	 width="1024px" height="1024px" viewBox="0 0 1024 1024" enable-background="new 0 0 1024 1024" xml:space="preserve">
<g>
	<rect fill="#607080" stroke="#231F20" stroke-miterlimit="10" width="1024" height="1024"/>
	<g>
		<g>
			<g enable-background="new    ">
				<defs>
					<polygon id="SVGID_1_" enable-background="new    " points="250.349,786.554 246.989,124.841 780.758,112.135 762.976,930.963 
											"/>
				</defs>
				<clipPath id="SVGID_2_">
					<use xlink:href="#SVGID_1_"  overflow="visible"/>
				</clipPath>
				<g clip-path="url(#SVGID_2_)">
					<g>
						<g>
							<g>
								<path fill="#303030" d="M246.989,124.841l3.36,661.713l512.627,144.409l10.579-487.161
									c-0.541,1.567-1.085,3.131-1.632,4.692c-0.548,1.56-1.099,3.118-1.652,4.672c-0.555,1.554-1.112,3.105-1.673,4.653
									c-0.562,1.547-1.126,3.093-1.694,4.636c-9.303,25.258-19.438,49.505-30.364,72.695
									c-10.813,22.952-22.389,44.843-34.682,65.634c-12.153,20.557-24.996,40.018-38.484,58.351
									c-13.324,18.109-27.265,35.101-41.78,50.948c-14.326,15.643-29.023,29.965-44.048,42.966
									c-14.822,12.826-29.956,24.361-45.362,34.607c-15.193,10.104-30.646,18.952-46.318,26.548
									c-15.453,7.488-31.115,13.758-46.952,18.814c-0.956,0.305-1.911,0.604-2.866,0.9c-0.954,0.295-1.908,0.586-2.862,0.872
									c-0.953,0.286-1.907,0.566-2.86,0.843c-0.953,0.276-1.905,0.549-2.858,0.815l-2.133-0.601l-174.984-49.294L246.989,124.841"
									/>
								<g>
									<defs>
										<polyline id="SVGID_3_" points="762.976,930.963 250.349,786.554 246.989,124.841 780.758,112.135 762.976,930.963 
																					"/>
									</defs>
									<clipPath id="SVGID_4_">
										<use xlink:href="#SVGID_3_"  overflow="visible"/>
									</clipPath>
									<path clip-path="url(#SVGID_4_)" fill="#202020" d="M426.828,411.644c-1.293,3.338-2.626,6.812-4,10.422
										c-1.372,3.604-2.784,7.344-4.236,11.218c-1.45,3.868-2.94,7.869-4.47,12.003c-1.527,4.127-3.094,8.387-4.7,12.779
										l-25.374,69.879c-0.604,1.68-1.225,3.438-1.864,5.271c-0.638,1.834-1.294,3.744-1.968,5.731
										c-0.673,1.986-1.364,4.049-2.072,6.188c-0.708,2.138-1.433,4.352-2.176,6.642c-2.001-0.361-3.856-0.695-5.566-1.001
										c-1.708-0.307-3.271-0.584-4.689-0.835c-1.417-0.25-2.691-0.472-3.823-0.666c-1.13-0.194-2.119-0.361-2.965-0.5
										c-0.786-0.129-1.747-0.281-2.88-0.457c-1.133-0.177-2.438-0.377-3.917-0.602c-1.476-0.224-3.124-0.472-4.941-0.743
										c-1.814-0.271-3.798-0.566-5.951-0.886l-2.571-13.103l-16.882-75.542l-13.194-57.678c1.538,0.19,3.036,0.372,4.493,0.544
										c1.459,0.173,2.877,0.337,4.255,0.493c1.379,0.156,2.717,0.303,4.014,0.442c1.298,0.139,2.555,0.27,3.77,0.392
										c0.746,0.075,1.598,0.156,2.557,0.244c0.96,0.088,2.028,0.183,3.203,0.283c1.176,0.101,2.461,0.208,3.854,0.322
										c1.395,0.113,2.898,0.233,4.512,0.359c0.27,1.592,0.524,3.088,0.763,4.488c0.24,1.4,0.464,2.705,0.674,3.914
										c0.21,1.208,0.405,2.321,0.586,3.338c0.181,1.017,0.347,1.938,0.499,2.762c0.211,1.079,0.468,2.375,0.772,3.891
										c0.304,1.516,0.655,3.25,1.053,5.202c0.398,1.952,0.842,4.123,1.334,6.513s1.03,4.999,1.615,7.826l10.344,51.21
										c0.258,1.337,0.532,2.774,0.82,4.313c0.289,1.539,0.591,3.178,0.909,4.919c0.317,1.741,0.65,3.582,0.997,5.524
										c0.347,1.942,0.709,3.986,1.085,6.129l3.268-11.658l25.184-78.377c0.11-0.364,0.225-0.742,0.342-1.133
										c0.118-0.392,0.239-0.796,0.365-1.214s0.254-0.849,0.387-1.293c0.132-0.444,0.269-0.901,0.409-1.371
										s0.301-1.021,0.483-1.653c0.182-0.633,0.385-1.346,0.609-2.142c0.224-0.795,0.468-1.672,0.733-2.631
										c0.266-0.959,0.552-2,0.858-3.122c1.771,0.215,3.456,0.416,5.058,0.604c1.603,0.188,3.121,0.364,4.553,0.525
										c1.434,0.162,2.782,0.311,4.043,0.447c1.263,0.136,2.439,0.258,3.527,0.368c0.681,0.068,1.53,0.149,2.547,0.243
										c1.018,0.094,2.204,0.2,3.56,0.318c1.357,0.118,2.885,0.249,4.583,0.392C422.909,411.32,424.782,411.476,426.828,411.644
										 M486.833,572.821c-1.781-0.294-3.552-0.637-5.311-1.027c-1.756-0.391-3.501-0.83-5.235-1.318
										c-1.732-0.486-3.452-1.022-5.161-1.606c-1.707-0.582-3.402-1.214-5.086-1.894c-1.684-0.677-3.32-1.407-4.911-2.192
										c-1.588-0.783-3.13-1.62-4.625-2.512c-1.494-0.89-2.941-1.832-4.343-2.829c-1.4-0.995-2.754-2.044-4.063-3.146
										c-1.309-1.101-2.561-2.271-3.757-3.51c-1.194-1.238-2.333-2.546-3.416-3.923c-1.082-1.376-2.108-2.822-3.079-4.338
										c-0.971-1.515-1.886-3.1-2.746-4.754c-0.859-1.652-1.669-3.365-2.428-5.141c-0.759-1.774-1.468-3.61-2.126-5.508
										s-1.268-3.856-1.828-5.879c-0.56-2.021-1.07-4.104-1.53-6.25c-0.459-2.146-0.86-4.301-1.203-6.465
										s-0.626-4.338-0.852-6.521c-0.225-2.184-0.392-4.377-0.5-6.582c-0.109-2.205-0.159-4.42-0.15-6.646
										c0.014-3.672,0.186-7.26,0.515-10.764c0.329-3.506,0.816-6.929,1.461-10.269c0.646-3.343,1.45-6.604,2.413-9.782
										c0.964-3.182,2.088-6.282,3.372-9.301c1.286-3.025,2.712-5.874,4.28-8.544c1.57-2.675,3.282-5.174,5.136-7.495
										c1.858-2.325,3.859-4.473,6.004-6.444c2.15-1.975,4.445-3.771,6.887-5.389c2.445-1.62,5.073-2.992,7.885-4.114
										c2.818-1.125,5.822-2,9.013-2.623c3.199-0.625,6.586-0.997,10.164-1.114c3.588-0.119,7.369,0.019,11.342,0.413
										c2.91,0.289,5.904,0.71,8.983,1.266c3.087,0.557,6.259,1.248,9.517,2.074c3.267,0.828,6.621,1.792,10.062,2.892
										c3.451,1.104,6.991,2.344,10.621,3.723c-0.025,2.784-0.03,5.647-0.014,8.59c0.018,2.942,0.056,5.964,0.115,9.066
										c0.061,3.101,0.142,6.282,0.245,9.543c0.103,3.26,0.228,6.601,0.374,10.021c-0.981-0.57-1.915-1.108-2.801-1.612
										s-1.724-0.976-2.515-1.415c-0.79-0.438-1.533-0.844-2.229-1.216s-1.345-0.712-1.946-1.019
										c-0.601-0.304-1.228-0.607-1.88-0.909c-0.651-0.301-1.329-0.601-2.031-0.899c-0.701-0.298-1.429-0.594-2.181-0.888
										c-0.751-0.294-1.527-0.586-2.328-0.875c-0.801-0.289-1.591-0.564-2.371-0.824c-0.779-0.261-1.549-0.507-2.308-0.739
										c-0.758-0.232-1.506-0.45-2.244-0.654c-0.737-0.204-1.463-0.394-2.178-0.57c-0.715-0.176-1.41-0.338-2.086-0.485
										c-0.675-0.147-1.331-0.28-1.968-0.398c-0.636-0.119-1.253-0.223-1.851-0.313c-0.597-0.091-1.176-0.167-1.735-0.23
										c-1.464-0.166-2.906-0.256-4.327-0.27c-1.419-0.014-2.816,0.048-4.193,0.186c-1.375,0.138-2.729,0.351-4.063,0.64
										c-1.332,0.289-2.643,0.653-3.934,1.093c-1.29,0.44-2.533,0.962-3.73,1.568c-1.196,0.605-2.346,1.294-3.451,2.065
										c-1.104,0.771-2.162,1.625-3.176,2.562c-1.012,0.937-1.98,1.956-2.903,3.059c-0.92,1.103-1.784,2.27-2.589,3.501
										c-0.805,1.23-1.552,2.526-2.242,3.886c-0.689,1.359-1.322,2.783-1.896,4.271c-0.575,1.487-1.092,3.039-1.553,4.655
										c-0.459,1.618-0.862,3.265-1.209,4.94c-0.347,1.675-0.638,3.38-0.873,5.114c-0.235,1.733-0.414,3.496-0.537,5.289
										s-0.189,3.615-0.2,5.468c-0.01,1.888,0.043,3.733,0.162,5.535s0.301,3.562,0.548,5.278
										c0.247,1.717,0.559,3.391,0.936,5.023c0.376,1.633,0.818,3.223,1.325,4.771c0.505,1.55,1.086,3.023,1.744,4.419
										c0.658,1.396,1.392,2.716,2.203,3.959c0.812,1.244,1.7,2.411,2.666,3.503c0.966,1.092,2.01,2.107,3.132,3.048
										c1.121,0.94,2.276,1.79,3.465,2.549c1.19,0.759,2.415,1.427,3.674,2.004c1.261,0.577,2.556,1.063,3.886,1.458
										c1.332,0.396,2.698,0.699,4.101,0.912c1.167,0.177,2.362,0.298,3.588,0.363c1.227,0.066,2.483,0.076,3.77,0.03
										c1.288-0.047,2.605-0.149,3.954-0.309c1.35-0.16,2.73-0.377,4.142-0.651l1.099-24.111
										c-0.866-0.178-1.644-0.336-2.332-0.476c-0.688-0.139-1.289-0.259-1.801-0.358c-0.512-0.101-0.935-0.182-1.271-0.243
										c-0.335-0.062-0.583-0.104-0.742-0.126l-8.406-1.061l0.655-13.62c0.016-0.37,0.033-0.78,0.052-1.23
										c0.02-0.451,0.041-0.942,0.063-1.474c0.023-0.532,0.049-1.104,0.076-1.716c0.028-0.612,0.057-1.265,0.089-1.957
										c0.03-0.695,0.058-1.454,0.084-2.277c0.025-0.823,0.048-1.709,0.069-2.661c0.021-0.951,0.038-1.967,0.053-3.047
										c0.015-1.081,0.026-2.226,0.035-3.436c1.805,0.268,3.592,0.528,5.36,0.781c1.771,0.253,3.523,0.499,5.256,0.738
										c1.736,0.239,3.453,0.471,5.151,0.696c1.7,0.226,3.381,0.443,5.042,0.655c2.845,0.361,5.541,0.699,8.088,1.014
										c2.553,0.315,4.955,0.606,7.206,0.874c2.255,0.268,4.358,0.511,6.309,0.73c1.953,0.22,3.752,0.414,5.396,0.584
										c-0.203,2.578-0.409,5.423-0.619,8.537c-0.21,3.112-0.423,6.493-0.639,10.142c-0.216,3.646-0.435,7.561-0.656,11.743
										c-0.222,4.18-0.447,8.626-0.675,13.34c-0.229,4.709-0.437,9.127-0.625,13.255c-0.188,4.126-0.354,7.963-0.501,11.512
										c-0.146,3.547-0.272,6.806-0.378,9.777c-0.104,2.971-0.189,5.655-0.253,8.053c-1.566,0.14-3.064,0.263-4.493,0.371
										c-1.427,0.107-2.784,0.198-4.074,0.274c-1.288,0.075-2.508,0.135-3.66,0.178c-1.151,0.044-2.234,0.071-3.25,0.083
										c-1.015,0.011-2.08,0.009-3.194-0.007c-1.114-0.015-2.277-0.043-3.49-0.084c-1.212-0.041-2.474-0.095-3.784-0.161
										c-1.31-0.066-2.668-0.145-4.076-0.235c-1.408-0.094-2.775-0.198-4.102-0.313c-1.326-0.115-2.611-0.24-3.857-0.377
										c-1.245-0.136-2.45-0.283-3.617-0.441C489.047,573.17,487.921,573.001,486.833,572.821 M612.366,555.967l1.552-114.411
										l72.355-22.608l-2.309,133.933c-0.043,2.481-0.144,4.801-0.303,6.958c-0.158,2.156-0.375,4.149-0.649,5.981
										c-0.274,1.831-0.606,3.499-0.997,5.006c-0.39,1.506-0.837,2.85-1.342,4.032c-0.503,1.184-1.09,2.299-1.759,3.345
										c-0.67,1.045-1.422,2.021-2.257,2.929c-0.835,0.906-1.752,1.744-2.751,2.514c-0.998,0.77-2.078,1.471-3.239,2.104
										c-1.16,0.63-2.354,1.153-3.582,1.568c-1.227,0.414-2.487,0.722-3.781,0.921c-1.293,0.199-2.619,0.292-3.98,0.276
										c-1.359-0.015-2.752-0.137-4.179-0.365c-1.635-0.262-3.184-0.663-4.646-1.206c-1.46-0.541-2.834-1.222-4.122-2.043
										c-1.287-0.82-2.489-1.78-3.605-2.88c-1.115-1.099-2.145-2.337-3.09-3.715c-0.946-1.377-1.77-2.824-2.471-4.342
										c-0.701-1.517-1.281-3.104-1.738-4.761c-0.458-1.657-0.794-3.385-1.008-5.184c-0.215-1.799-0.308-3.668-0.279-5.608
										c0.028-1.961,0.199-3.833,0.511-5.617c0.312-1.785,0.766-3.483,1.36-5.094c0.596-1.611,1.333-3.136,2.213-4.573
										c0.881-1.438,1.904-2.79,3.069-4.056c1.168-1.267,2.418-2.344,3.751-3.231c1.334-0.889,2.752-1.588,4.253-2.097
										c1.503-0.51,3.089-0.828,4.76-0.956c1.672-0.128,3.428-0.065,5.269,0.189c0.604,0.084,1.189,0.183,1.757,0.296
										c0.568,0.113,1.117,0.241,1.649,0.385s1.047,0.302,1.543,0.475c0.497,0.174,0.977,0.362,1.438,0.565
										c0.46,0.203,0.992,0.472,1.597,0.806c0.605,0.333,1.283,0.732,2.033,1.196c0.751,0.465,1.575,0.994,2.472,1.589
										c0.897,0.595,1.868,1.254,2.912,1.979l1.459-87.093l-53.974,16.141l-1.377,98.249c-0.033,2.355-0.123,4.572-0.27,6.649
										c-0.146,2.077-0.349,4.014-0.607,5.811c-0.259,1.796-0.574,3.452-0.946,4.968c-0.371,1.516-0.799,2.891-1.282,4.125
										c-0.484,1.235-1.052,2.39-1.701,3.463c-0.649,1.072-1.381,2.063-2.194,2.972c-0.813,0.909-1.707,1.736-2.684,2.483
										c-0.975,0.746-2.03,1.41-3.168,1.994c-1.137,0.583-2.297,1.065-3.48,1.447c-1.182,0.381-2.387,0.661-3.613,0.841
										s-2.475,0.259-3.746,0.237c-1.27-0.021-2.562-0.145-3.876-0.367c-1.556-0.265-3.026-0.662-4.412-1.193
										c-1.385-0.53-2.685-1.194-3.901-1.99c-1.216-0.796-2.348-1.725-3.396-2.784c-1.048-1.06-2.014-2.252-2.896-3.575
										c-0.884-1.326-1.653-2.721-2.31-4.187c-0.655-1.464-1.197-2.999-1.626-4.604s-0.745-3.281-0.948-5.029
										c-0.203-1.747-0.294-3.566-0.271-5.458c0.022-2.007,0.179-3.913,0.467-5.719c0.289-1.806,0.711-3.512,1.266-5.118
										c0.556-1.607,1.244-3.114,2.066-4.522c0.823-1.408,1.78-2.718,2.873-3.928c1.093-1.209,2.269-2.234,3.527-3.077
										c1.26-0.845,2.603-1.505,4.028-1.982c1.428-0.477,2.939-0.771,4.534-0.88c1.597-0.108,3.277-0.033,5.042,0.229
										c1.122,0.166,2.274,0.448,3.459,0.847c1.187,0.398,2.403,0.914,3.653,1.547c1.251,0.633,2.534,1.383,3.85,2.25
										C609.635,553.878,610.984,554.863,612.366,555.967 M780.758,112.135l-533.769,12.706l3.36,661.713l174.984,49.294
										c34.291-9.461,67.899-24.728,100.271-45.526c33.349-21.428,65.315-48.682,95.25-81.394
										c30.771-33.627,59.296-72.912,84.836-117.344c26.163-45.515,49.075-96.221,67.944-151.417L780.758,112.135"/>
									<path clip-path="url(#SVGID_4_)" fill="#231F20" d="M773.634,440.167c-18.869,55.196-41.781,105.902-67.944,151.417
										c-25.54,44.432-54.064,83.717-84.836,117.344c-29.935,32.712-61.901,59.966-95.25,81.394
										c-32.371,20.799-65.98,36.065-100.271,45.526l2.133,0.601c0.953-0.267,1.906-0.539,2.858-0.815
										c0.953-0.276,1.907-0.557,2.86-0.843c0.954-0.286,1.908-0.577,2.862-0.872c0.955-0.296,1.91-0.596,2.866-0.9
										c15.836-5.057,31.499-11.326,46.952-18.814c15.673-7.596,31.125-16.443,46.318-26.548
										c15.406-10.246,30.54-21.781,45.362-34.607c15.024-13.001,29.722-27.323,44.048-42.966
										c14.516-15.848,28.456-32.839,41.78-50.948c13.488-18.333,26.331-37.794,38.484-58.351
										c12.293-20.791,23.868-42.682,34.682-65.634c10.926-23.189,21.062-47.437,30.364-72.695
										c0.568-1.543,1.133-3.088,1.694-4.636c0.561-1.548,1.118-3.1,1.673-4.653c0.554-1.554,1.104-3.112,1.652-4.672
										c0.547-1.561,1.091-3.125,1.632-4.692L773.634,440.167"/>
									<path clip-path="url(#SVGID_4_)" fill="#FFFFFF" d="M426.828,411.644c-2.046-0.168-3.919-0.324-5.62-0.468
										c-1.699-0.143-3.226-0.274-4.583-0.392c-1.355-0.118-2.542-0.224-3.56-0.318c-1.017-0.093-1.866-0.174-2.547-0.243
										c-1.088-0.109-2.265-0.232-3.527-0.368c-1.261-0.136-2.609-0.285-4.043-0.447c-1.432-0.162-2.95-0.337-4.553-0.525
										c-1.602-0.188-3.287-0.389-5.058-0.604c-0.307,1.122-0.593,2.163-0.858,3.122c-0.265,0.958-0.51,1.835-0.733,2.631
										c-0.224,0.795-0.427,1.509-0.609,2.142c-0.182,0.632-0.343,1.184-0.483,1.653s-0.277,0.927-0.409,1.371
										c-0.133,0.444-0.262,0.875-0.387,1.293s-0.247,0.823-0.365,1.214c-0.118,0.391-0.232,0.769-0.342,1.133l-25.184,78.377
										l-3.268,11.658c-0.376-2.144-0.738-4.187-1.085-6.129c-0.347-1.942-0.679-3.784-0.997-5.524
										c-0.318-1.741-0.621-3.38-0.909-4.919c-0.288-1.539-0.562-2.976-0.82-4.313l-10.344-51.21
										c-0.585-2.827-1.124-5.436-1.615-7.826s-0.936-4.561-1.334-6.513c-0.397-1.952-0.749-3.686-1.053-5.202
										c-0.304-1.515-0.562-2.812-0.772-3.891c-0.152-0.825-0.318-1.746-0.499-2.762c-0.181-1.017-0.376-2.13-0.586-3.338
										c-0.21-1.209-0.435-2.514-0.674-3.914c-0.239-1.4-0.494-2.896-0.763-4.488c-1.614-0.126-3.117-0.246-4.512-0.359
										c-1.393-0.114-2.678-0.221-3.854-0.322c-1.175-0.101-2.243-0.195-3.203-0.283c-0.959-0.088-1.812-0.169-2.557-0.244
										c-1.215-0.123-2.471-0.253-3.77-0.392c-1.297-0.139-2.635-0.286-4.014-0.442c-1.377-0.156-2.796-0.32-4.255-0.493
										c-1.458-0.172-2.955-0.354-4.493-0.544l13.194,57.678l16.882,75.542l2.571,13.103c2.152,0.319,4.136,0.614,5.951,0.886
										c1.817,0.271,3.465,0.52,4.941,0.743c1.478,0.225,2.784,0.425,3.917,0.602c1.134,0.176,2.094,0.328,2.88,0.457
										c0.846,0.139,1.834,0.306,2.965,0.5c1.131,0.194,2.405,0.416,3.823,0.666c1.419,0.251,2.982,0.528,4.689,0.835
										c1.71,0.306,3.565,0.64,5.566,1.001c0.743-2.29,1.468-4.504,2.176-6.642c0.708-2.139,1.399-4.201,2.072-6.188
										c0.673-1.987,1.33-3.897,1.968-5.731c0.639-1.834,1.26-3.592,1.864-5.271l25.374-69.879
										c1.606-4.392,3.173-8.651,4.7-12.779c1.53-4.134,3.02-8.136,4.47-12.003c1.452-3.875,2.864-7.614,4.236-11.218
										C424.202,418.456,425.535,414.982,426.828,411.644"/>
									<path clip-path="url(#SVGID_4_)" fill="#FFFFFF" d="M492.954,415.355c-3.974-0.394-7.754-0.532-11.342-0.413
										c-3.577,0.118-6.965,0.49-10.164,1.114c-3.19,0.623-6.194,1.498-9.013,2.623c-2.812,1.122-5.439,2.494-7.885,4.114
										c-2.442,1.618-4.737,3.415-6.887,5.389c-2.146,1.971-4.146,4.119-6.004,6.444c-1.854,2.321-3.566,4.819-5.136,7.495
										c-1.567,2.671-2.994,5.519-4.28,8.544c-1.284,3.019-2.408,6.12-3.372,9.301c-0.963,3.179-1.767,6.439-2.413,9.782
										c-0.645,3.34-1.132,6.763-1.461,10.269c-0.329,3.504-0.5,7.092-0.515,10.764c-0.009,2.227,0.041,4.442,0.15,6.646
										c0.108,2.205,0.275,4.398,0.5,6.582c0.226,2.184,0.51,4.357,0.852,6.521s0.743,4.319,1.203,6.465
										c0.46,2.146,0.971,4.229,1.53,6.25c0.56,2.022,1.169,3.981,1.828,5.879s1.368,3.733,2.126,5.508
										c0.759,1.775,1.569,3.488,2.428,5.141c0.86,1.654,1.775,3.239,2.746,4.754c0.971,1.516,1.997,2.962,3.079,4.338
										c1.083,1.377,2.222,2.685,3.416,3.923c1.196,1.239,2.448,2.409,3.757,3.51c1.309,1.102,2.663,2.15,4.063,3.146
										c1.402,0.997,2.849,1.939,4.343,2.829c1.496,0.892,3.037,1.729,4.625,2.512c1.59,0.785,3.227,1.516,4.911,2.192
										c1.685,0.68,3.38,1.312,5.086,1.894c1.709,0.584,3.429,1.12,5.161,1.606c1.734,0.488,3.479,0.928,5.235,1.318
										c1.759,0.391,3.529,0.733,5.311,1.027c1.087,0.18,2.214,0.349,3.379,0.506c1.167,0.158,2.372,0.306,3.617,0.441
										c1.246,0.137,2.532,0.262,3.857,0.377c1.327,0.114,2.694,0.219,4.102,0.313c1.408,0.091,2.766,0.169,4.076,0.235
										c1.311,0.066,2.572,0.12,3.784,0.161c1.213,0.041,2.376,0.069,3.49,0.084c1.114,0.016,2.18,0.018,3.194,0.007
										c1.016-0.012,2.099-0.039,3.25-0.083c1.152-0.043,2.372-0.103,3.66-0.178c1.29-0.076,2.647-0.167,4.074-0.274
										c1.429-0.108,2.927-0.231,4.493-0.371c0.063-2.397,0.148-5.082,0.253-8.053c0.105-2.972,0.231-6.23,0.378-9.777
										c0.146-3.549,0.313-7.386,0.501-11.512c0.188-4.128,0.396-8.546,0.625-13.255c0.228-4.714,0.453-9.16,0.675-13.34
										c0.222-4.183,0.44-8.097,0.656-11.743c0.216-3.649,0.429-7.029,0.639-10.142c0.21-3.114,0.416-5.959,0.619-8.537
										c-1.645-0.17-3.443-0.364-5.396-0.584c-1.95-0.219-4.054-0.462-6.309-0.73c-2.251-0.268-4.653-0.559-7.206-0.874
										c-2.547-0.314-5.243-0.652-8.088-1.014c-1.661-0.211-3.342-0.429-5.042-0.655c-1.698-0.225-3.415-0.457-5.151-0.696
										c-1.733-0.239-3.485-0.485-5.256-0.738c-1.768-0.253-3.555-0.513-5.36-0.781c-0.009,1.21-0.021,2.355-0.035,3.436
										c-0.015,1.08-0.032,2.096-0.053,3.047c-0.021,0.952-0.043,1.838-0.069,2.661c-0.026,0.823-0.054,1.582-0.084,2.277
										c-0.032,0.692-0.062,1.345-0.089,1.957c-0.027,0.612-0.053,1.184-0.076,1.716c-0.023,0.532-0.044,1.023-0.063,1.474
										c-0.019,0.451-0.036,0.861-0.052,1.23l-0.655,13.62l8.406,1.061c0.16,0.022,0.407,0.064,0.742,0.126
										c0.336,0.062,0.759,0.143,1.271,0.243c0.512,0.1,1.112,0.22,1.801,0.358c0.688,0.14,1.466,0.298,2.332,0.476l-1.099,24.111
										c-1.411,0.274-2.792,0.491-4.142,0.651c-1.349,0.159-2.667,0.262-3.954,0.309c-1.286,0.046-2.543,0.036-3.77-0.03
										c-1.226-0.065-2.421-0.187-3.588-0.363c-1.402-0.213-2.769-0.517-4.101-0.912c-1.33-0.395-2.625-0.881-3.886-1.458
										c-1.259-0.577-2.483-1.245-3.674-2.004c-1.189-0.759-2.344-1.608-3.465-2.549c-1.122-0.94-2.166-1.956-3.132-3.048
										c-0.965-1.092-1.854-2.259-2.666-3.503c-0.811-1.243-1.545-2.563-2.203-3.959c-0.658-1.396-1.239-2.869-1.744-4.419
										c-0.507-1.548-0.948-3.138-1.325-4.771c-0.377-1.632-0.689-3.306-0.936-5.023c-0.248-1.717-0.43-3.476-0.548-5.278
										s-0.172-3.647-0.162-5.535c0.01-1.853,0.077-3.675,0.2-5.468s0.302-3.556,0.537-5.289c0.235-1.734,0.526-3.438,0.873-5.114
										c0.347-1.676,0.75-3.322,1.209-4.94c0.461-1.616,0.979-3.167,1.553-4.655c0.575-1.488,1.207-2.912,1.896-4.271
										c0.69-1.36,1.437-2.656,2.242-3.886c0.805-1.232,1.668-2.399,2.589-3.501c0.923-1.103,1.891-2.122,2.903-3.059
										c1.014-0.937,2.072-1.791,3.176-2.562c1.105-0.771,2.255-1.46,3.451-2.065c1.197-0.606,2.441-1.128,3.73-1.568
										c1.291-0.44,2.602-0.805,3.934-1.093c1.333-0.289,2.688-0.502,4.063-0.64c1.377-0.138,2.774-0.199,4.193-0.186
										c1.421,0.014,2.863,0.104,4.327,0.27c0.559,0.063,1.138,0.14,1.735,0.23c0.598,0.09,1.215,0.195,1.851,0.313
										c0.637,0.118,1.292,0.251,1.968,0.398c0.676,0.147,1.371,0.309,2.086,0.485c0.715,0.176,1.441,0.366,2.178,0.57
										c0.737,0.204,1.485,0.422,2.244,0.654c0.759,0.232,1.528,0.478,2.308,0.739c0.78,0.26,1.57,0.535,2.371,0.824
										c0.801,0.29,1.577,0.582,2.328,0.875c0.752,0.294,1.479,0.59,2.181,0.888c0.702,0.298,1.38,0.598,2.031,0.899
										c0.652,0.302,1.279,0.605,1.88,0.909c0.602,0.307,1.25,0.646,1.946,1.019s1.439,0.778,2.229,1.216
										c0.791,0.439,1.629,0.91,2.515,1.415s1.819,1.042,2.801,1.612c-0.146-3.42-0.271-6.761-0.374-10.021
										c-0.104-3.261-0.185-6.442-0.245-9.543c-0.06-3.102-0.098-6.124-0.115-9.066c-0.017-2.943-0.012-5.806,0.014-8.59
										c-3.63-1.378-7.17-2.619-10.621-3.723c-3.441-1.1-6.795-2.064-10.062-2.892c-3.258-0.826-6.43-1.518-9.517-2.074
										C498.858,416.065,495.864,415.644,492.954,415.355"/>
									<path clip-path="url(#SVGID_4_)" fill="#FFFFFF" d="M686.273,418.947l-72.355,22.608l-1.552,114.411
										c-1.382-1.104-2.731-2.089-4.048-2.957c-1.315-0.867-2.599-1.617-3.85-2.25c-1.25-0.633-2.467-1.148-3.653-1.547
										c-1.185-0.398-2.337-0.681-3.459-0.847c-1.765-0.262-3.445-0.337-5.042-0.229c-1.595,0.109-3.106,0.403-4.534,0.88
										c-1.426,0.478-2.769,1.138-4.028,1.982c-1.259,0.843-2.435,1.868-3.527,3.077c-1.093,1.21-2.05,2.52-2.873,3.928
										c-0.822,1.408-1.511,2.915-2.066,4.522c-0.555,1.606-0.977,3.313-1.266,5.118c-0.288,1.806-0.444,3.712-0.467,5.719
										c-0.022,1.892,0.068,3.711,0.271,5.458c0.203,1.748,0.52,3.424,0.948,5.029s0.971,3.141,1.626,4.604
										c0.656,1.466,1.426,2.86,2.31,4.187c0.882,1.323,1.848,2.516,2.896,3.575c1.049,1.06,2.181,1.988,3.396,2.784
										c1.217,0.796,2.517,1.46,3.901,1.99c1.386,0.531,2.856,0.929,4.412,1.193c1.314,0.223,2.606,0.346,3.876,0.367
										c1.271,0.021,2.52-0.058,3.746-0.237s2.432-0.46,3.613-0.841c1.184-0.382,2.344-0.864,3.48-1.447
										c1.138-0.584,2.193-1.248,3.168-1.994c0.977-0.747,1.871-1.574,2.684-2.483c0.813-0.909,1.545-1.899,2.194-2.972
										c0.649-1.073,1.217-2.228,1.701-3.463c0.483-1.234,0.911-2.609,1.282-4.125c0.372-1.516,0.688-3.172,0.946-4.968
										c0.259-1.797,0.462-3.733,0.607-5.811c0.146-2.077,0.236-4.294,0.27-6.649l1.377-98.249l53.974-16.141l-1.459,87.093
										c-1.044-0.725-2.015-1.384-2.912-1.979c-0.896-0.595-1.721-1.124-2.472-1.589c-0.75-0.464-1.428-0.863-2.033-1.196
										c-0.604-0.334-1.137-0.603-1.597-0.806c-0.462-0.203-0.941-0.392-1.438-0.565c-0.496-0.173-1.011-0.331-1.543-0.475
										s-1.081-0.271-1.649-0.385c-0.567-0.113-1.153-0.212-1.757-0.296c-1.841-0.255-3.597-0.317-5.269-0.189
										c-1.671,0.128-3.257,0.446-4.76,0.956c-1.501,0.509-2.919,1.208-4.253,2.097c-1.333,0.888-2.583,1.965-3.751,3.231
										c-1.165,1.266-2.188,2.617-3.069,4.056c-0.88,1.438-1.617,2.962-2.213,4.573c-0.595,1.61-1.049,3.309-1.36,5.094
										c-0.312,1.784-0.482,3.656-0.511,5.617c-0.028,1.94,0.064,3.81,0.279,5.608c0.214,1.799,0.55,3.526,1.008,5.184
										c0.457,1.657,1.037,3.244,1.738,4.761c0.701,1.518,1.524,2.965,2.471,4.342c0.945,1.378,1.975,2.616,3.09,3.715
										c1.116,1.1,2.318,2.06,3.605,2.88c1.288,0.821,2.662,1.502,4.122,2.043c1.462,0.543,3.011,0.944,4.646,1.206
										c1.427,0.229,2.819,0.351,4.179,0.365c1.361,0.016,2.688-0.077,3.98-0.276c1.294-0.199,2.555-0.507,3.781-0.921
										c1.228-0.415,2.422-0.938,3.582-1.568c1.161-0.634,2.241-1.335,3.239-2.104c0.999-0.77,1.916-1.607,2.751-2.514
										c0.835-0.907,1.587-1.884,2.257-2.929c0.669-1.046,1.256-2.161,1.759-3.345c0.505-1.183,0.952-2.526,1.342-4.032
										c0.391-1.507,0.723-3.175,0.997-5.006c0.274-1.832,0.491-3.825,0.649-5.981c0.159-2.157,0.26-4.477,0.303-6.958
										L686.273,418.947"/>
								</g>
							</g>
						</g>
					</g>
				</g>
			</g>
		</g>
	</g>
</g>
</svg>
